<svg xmlns="http://www.w3.org/2000/svg" width="20.49" height="17.741" viewBox="0 0 20.49 17.741"><defs><style>.a{fill:#2f5991;}</style></defs><path class="a" d="M2.836,24.8H16.174l-.861-2.03H3.03V12.443H17.936v6.273l2.03.861V9.416A1.838,1.838,0,0,0,18.131,7.58H2.836A1.838,1.838,0,0,0,1,9.416V22.965A1.838,1.838,0,0,0,2.836,24.8ZM8.3,9.4a.767.767,0,1,1-.546.228A.767.767,0,0,1,8.3,9.4ZM6.02,9.4a.767.767,0,1,1-.546.228A.767.767,0,0,1,6.02,9.4Zm-2.279,0a.767.767,0,1,1-.546.228A.767.767,0,0,1,3.741,9.4ZM21.265,24.008A.769.769,0,0,1,20.178,25.1l-.97-.972-.579.579a.667.667,0,0,1-1.087-.209l-1.648-3.887a.661.661,0,0,1,.056-.627.669.669,0,0,1,.836-.251l3.868,1.643a.667.667,0,0,1,.209,1.087l-.569.577ZM12.1,14.47a.723.723,0,0,1,.061.573L10.48,20.872a.749.749,0,0,1-.345.437.715.715,0,0,1-.567.063l-.278-.077a.74.74,0,0,1-.435-.345.721.721,0,0,1-.061-.573l1.683-5.829a.749.749,0,0,1,.349-.437.717.717,0,0,1,.565-.063l.284.079a.738.738,0,0,1,.427.343Zm-3.994,1.88L6.74,17.7l1.37,1.367a.732.732,0,0,1,0,1.045l-.234.222a.732.732,0,0,1-1.045,0l-2.1-2.108a.732.732,0,0,1,0-1.045l2.108-2.1a.749.749,0,0,1,1.045,0l.23.226a.732.732,0,0,1,0,1.045ZM16.452,17.7a.732.732,0,0,1-.209.521l-2.118,2.114a.73.73,0,0,1-1.045,0l-.226-.226a.732.732,0,0,1,0-1.045L14.219,17.7l-1.361-1.361a.732.732,0,0,1,0-1.045l.226-.226a.749.749,0,0,1,1.045,0l2.1,2.118a.732.732,0,0,1,.22.514Z" transform="translate(-1 -7.58)"/></svg>