<svg xmlns="http://www.w3.org/2000/svg" width="17.314" height="17.331" viewBox="0 0 17.314 17.331"><defs><style>.a{fill:#2f5991;}</style></defs><path class="a" d="M16.116,9.082H8.541A.541.541,0,1,1,8.541,8h7.575a.541.541,0,1,1,0,1.082Z" transform="translate(-3.671 -3.655)"/><path class="a" d="M12.87,17.082H8.541a.541.541,0,1,1,0-1.082H12.87a.541.541,0,1,1,0,1.082Z" transform="translate(-3.671 -7.326)"/><path class="a" d="M16.116,13.082H8.541a.541.541,0,0,1,0-1.082h7.575a.541.541,0,1,1,0,1.082Z" transform="translate(-3.671 -5.49)"/><path class="a" d="M3.787,17.3a.541.541,0,0,1-.535-.618l.495-3.46A7.034,7.034,0,0,1,7.043-.031h3.23a7.042,7.042,0,0,1,0,14.085H7.879L4.134,17.175A.54.54,0,0,1,3.787,17.3ZM7.043,1.051a5.954,5.954,0,0,0-2.479,11.37.54.54,0,0,1,.308.568l-.35,2.454L7.337,13.1a.543.543,0,0,1,.346-.125h2.588a5.96,5.96,0,1,0,0-11.92Z" transform="translate(0 0.031)"/></svg>