<svg xmlns="http://www.w3.org/2000/svg" width="22" height="16.988" viewBox="0 0 22 16.988"><defs><style>.a{fill:#2f5991;}.b,.d{fill:none;}.b{stroke:#2f5991;}.c{stroke:none;}</style></defs><g transform="translate(0.288)"><path class="a" d="M18.7,973.965a.576.576,0,0,0-.5.571v6.643a.568.568,0,0,0,.807.484l5.5-3.321a.611.611,0,0,0,0-.977l-5.5-3.321A.524.524,0,0,0,18.7,973.965Zm.584,1.548,3.873,2.344-3.873,2.335Zm-5.213,10.094a1.371,1.371,0,0,0-1.254.83H11.6a.554.554,0,0,0,0,1.107h1.22a1.362,1.362,0,0,0,2.508,0H30.286a.554.554,0,0,0,0-1.107H15.325A1.371,1.371,0,0,0,14.071,985.607Z" transform="translate(-9.93 -971.387)"/><g class="b" transform="translate(-0.288)"><rect class="c" width="22" height="13" rx="2"/><rect class="d" x="0.5" y="0.5" width="21" height="12" rx="1.5"/></g></g></svg>