<?xml version="1.0" encoding="UTF-8"?>
<svg xmlns="http://www.w3.org/2000/svg" xmlns:xlink="http://www.w3.org/1999/xlink" width="194pt" height="194pt" viewBox="0 0 194 194" version="1.1">
<g id="surface1">
<path style=" stroke:none;fill-rule:evenodd;fill:rgb(100%,100%,100%);fill-opacity:1;" d="M 0.257813 0.675781 L 193.015625 0.675781 L 193.015625 193.433594 L 0.257813 193.433594 L 0.257813 0.675781 "/>
<path style=" stroke:none;fill-rule:evenodd;fill:rgb(13.699341%,12.199402%,12.5%);fill-opacity:1;" d="M 16.683594 89.769531 L 16.683594 89.136719 C 16.683594 88.441406 17.378906 88.210938 17.957031 88.210938 L 23.332031 88.210938 C 28.015625 88.210938 31.425781 91.96875 31.425781 96.476563 L 31.425781 102.429688 C 31.425781 106.941406 27.785156 110.351563 23.332031 110.351563 L 17.261719 110.351563 C 12 110.351563 8.761719 106.535156 8.761719 101.449219 L 8.761719 85.261719 C 8.761719 84.335938 9.167969 83.757813 10.09375 83.757813 L 14.601563 83.757813 C 15.585938 83.757813 15.875 84.335938 15.875 85.261719 L 15.875 101.449219 C 15.875 102.777344 16.972656 103.820313 18.304688 103.820313 L 22.058594 103.820313 C 23.5625 103.820313 24.429688 102.953125 24.429688 101.449219 L 24.429688 96.707031 C 24.429688 95.03125 23.160156 94.683594 21.714844 94.683594 L 18.304688 94.683594 C 16.972656 94.683594 16.683594 94.164063 16.683594 92.894531 L 16.683594 89.769531 "/>
<path style=" stroke:none;fill-rule:evenodd;fill:rgb(13.699341%,12.199402%,12.5%);fill-opacity:1;" d="M 47.265625 105.554688 L 47.265625 108.789063 C 47.265625 109.832031 46.863281 110.351563 45.761719 110.351563 L 41.949219 110.351563 C 36.570313 110.351563 32.410156 107.578125 32.410156 101.910156 L 32.410156 97.226563 C 32.410156 92.371094 35.472656 88.210938 40.734375 88.210938 L 46.917969 88.210938 C 51.140625 88.210938 54.78125 91.15625 54.78125 95.550781 L 54.78125 108.789063 C 54.78125 109.601563 54.550781 110.351563 53.625 110.351563 L 49.230469 110.351563 C 48.132813 110.351563 47.902344 109.714844 47.902344 108.789063 L 47.902344 97.226563 C 47.902344 95.839844 46.917969 94.683594 45.472656 94.683594 L 42.640625 94.683594 C 40.964844 94.683594 39.460938 95.320313 39.460938 97.226563 L 39.460938 100.640625 C 39.460938 102.777344 40.503906 103.820313 42.640625 103.820313 L 45.472656 103.820313 C 46.515625 103.820313 47.265625 104.511719 47.265625 105.554688 "/>
<path style=" stroke:none;fill-rule:evenodd;fill:rgb(13.699341%,12.199402%,12.5%);fill-opacity:1;" d="M 61.429688 110.351563 L 57.152344 110.351563 C 56.054688 110.351563 55.765625 109.542969 55.765625 108.617188 L 55.765625 96.304688 C 55.765625 90.867188 59.984375 88.210938 65.015625 88.210938 L 68.195313 88.210938 C 73.050781 88.210938 77.097656 91.15625 77.097656 96.304688 L 77.097656 108.617188 C 77.097656 109.425781 76.867188 110.351563 75.882813 110.351563 L 72.125 110.351563 C 70.96875 110.351563 70.621094 109.714844 70.621094 108.617188 L 70.621094 96.765625 C 70.621094 95.03125 69.292969 94.683594 67.847656 94.683594 L 65.015625 94.683594 C 63.628906 94.683594 62.644531 95.609375 62.644531 96.996094 L 62.644531 108.617188 C 62.644531 109.425781 62.414063 110.351563 61.429688 110.351563 "/>
<path style=" stroke:none;fill-rule:evenodd;fill:rgb(13.699341%,12.199402%,12.5%);fill-opacity:1;" d="M 85.191406 102.085938 L 85.191406 108.558594 C 85.191406 109.195313 84.960938 110.351563 84.09375 110.351563 L 79.527344 110.351563 C 78.542969 110.351563 78.253906 109.367188 78.253906 108.558594 L 78.253906 85.320313 C 78.253906 84.453125 78.542969 83.757813 79.527344 83.757813 L 83.515625 83.757813 C 84.726563 83.757813 85.191406 84.105469 85.191406 85.320313 L 85.191406 95.609375 L 91.492188 95.609375 C 92.824219 95.609375 93.863281 94.972656 93.863281 93.585938 L 93.863281 90.289063 C 93.863281 89.308594 94.09375 88.210938 95.308594 88.210938 L 98.894531 88.210938 C 100.28125 88.210938 101.089844 88.902344 101.089844 90.289063 L 101.089844 95.4375 C 101.089844 96.996094 100.164063 98.152344 98.894531 98.90625 C 100.570313 100.0625 101.089844 101.851563 101.089844 103.820313 L 101.089844 108.964844 C 101.089844 109.832031 100.628906 110.351563 99.703125 110.351563 L 95.539063 110.351563 C 94.382813 110.351563 93.863281 109.773438 93.863281 108.675781 L 93.863281 103.820313 C 93.863281 102.488281 92.648438 102.085938 91.492188 102.085938 L 85.191406 102.085938 "/>
<path style=" stroke:none;fill-rule:evenodd;fill:rgb(13.699341%,12.199402%,12.5%);fill-opacity:1;" d="M 108.835938 97.574219 L 108.835938 101.390625 C 108.835938 103.183594 109.644531 103.820313 111.378906 103.820313 L 120.457031 103.820313 C 121.09375 103.820313 121.613281 104.109375 121.613281 104.800781 L 121.613281 108.964844 C 121.613281 109.773438 121.265625 110.351563 120.457031 110.351563 L 110.511719 110.351563 C 105.714844 110.351563 101.957031 107.34375 101.957031 102.316406 L 101.957031 96.941406 C 101.957031 92.429688 104.789063 88.210938 109.761719 88.210938 L 119.820313 88.210938 C 120.804688 88.210938 121.613281 88.847656 121.613281 89.886719 L 121.613281 93.472656 C 121.613281 94.28125 120.457031 94.683594 119.820313 94.683594 L 111.378906 94.683594 C 109.53125 94.683594 108.835938 95.839844 108.835938 97.574219 "/>
<path style=" stroke:none;fill-rule:evenodd;fill:rgb(13.699341%,12.199402%,12.5%);fill-opacity:1;" d="M 137.394531 105.207031 L 137.394531 108.847656 C 137.394531 109.773438 136.816406 110.351563 135.890625 110.351563 L 132.019531 110.351563 C 126.757813 110.351563 122.539063 107.632813 122.539063 101.96875 L 122.539063 97.34375 C 122.539063 92.429688 125.542969 88.210938 130.863281 88.210938 L 135.890625 88.210938 C 140.460938 88.210938 144.910156 90.523438 144.910156 95.667969 L 144.910156 108.847656 C 144.910156 109.601563 144.5625 110.351563 143.753906 110.351563 L 139.304688 110.351563 C 138.378906 110.351563 138.03125 109.773438 138.03125 108.847656 L 138.03125 97.34375 C 138.03125 95.957031 137.453125 94.683594 135.890625 94.683594 L 132.769531 94.683594 C 130.976563 94.683594 129.589844 95.320313 129.589844 97.34375 L 129.589844 100.695313 C 129.589844 102.777344 130.6875 103.820313 132.769531 103.820313 L 135.601563 103.820313 C 136.527344 103.820313 137.394531 104.164063 137.394531 105.207031 "/>
<path style=" stroke:none;fill-rule:evenodd;fill:rgb(13.699341%,12.199402%,12.5%);fill-opacity:1;" d="M 151.441406 110.351563 L 147.570313 110.351563 C 146.644531 110.351563 146.125 109.542969 146.125 108.675781 L 146.125 96.824219 C 146.125 92.605469 148.265625 88.210938 153.003906 88.210938 L 159.941406 88.210938 C 160.925781 88.210938 162.023438 88.382813 162.023438 89.597656 L 162.023438 93.355469 C 162.023438 94.105469 161.617188 94.683594 160.808594 94.683594 L 155.085938 94.683594 C 153.410156 94.683594 153.003906 96.1875 153.003906 97.574219 L 153.003906 108.675781 C 153.003906 109.601563 152.367188 110.351563 151.441406 110.351563 "/>
<path style=" stroke:none;fill-rule:evenodd;fill:rgb(13.699341%,12.199402%,12.5%);fill-opacity:1;" d="M 176.765625 89.714844 L 176.765625 93.125 C 176.765625 93.816406 176.476563 94.683594 175.550781 94.683594 L 171.910156 94.683594 C 170.347656 94.683594 169.421875 95.839844 169.421875 97.285156 L 169.421875 101.160156 C 169.421875 103.296875 170.636719 103.820313 172.601563 103.820313 L 175.78125 103.820313 C 176.824219 103.820313 177.460938 102.835938 177.460938 101.910156 L 177.460938 85.550781 C 177.460938 84.394531 177.921875 83.757813 179.191406 83.757813 L 182.660156 83.757813 C 183.992188 83.757813 184.511719 84.277344 184.511719 85.550781 L 184.511719 101.910156 C 184.511719 106.304688 182.140625 110.351563 177.285156 110.351563 L 171.445313 110.351563 C 166.878906 110.351563 162.253906 107.921875 162.253906 102.777344 L 162.253906 95.667969 C 162.253906 91.273438 166.128906 88.210938 170.347656 88.210938 L 174.914063 88.210938 C 175.898438 88.210938 176.765625 88.613281 176.765625 89.714844 "/>
</g>
</svg>
