<svg width="40" height="31" viewBox="0 0 40 31" fill="none" xmlns="http://www.w3.org/2000/svg">
<path d="M29.545 18.2145H32.3601C32.441 18.2145 32.6279 18.1873 32.7088 18.1873C33.2445 18.0772 33.7007 17.5825 33.7007 16.8963C33.7007 16.2372 33.2445 15.7425 32.7088 15.6053C32.6279 15.5781 32.4675 15.5781 32.3601 15.5781H29.545V18.2145Z" fill="url(#paint0_linear)"/>
<path d="M32.0378 0C29.3567 0 27.1597 2.22462 27.1597 4.99975V10.1925H34.0479C34.2083 10.1925 34.3967 10.1925 34.5306 10.2197C36.0845 10.3027 37.2382 11.1261 37.2382 12.5544C37.2382 13.6811 36.4612 14.6418 35.0132 14.8349V14.8891C36.5951 14.9992 37.8003 15.9057 37.8003 17.3068C37.8003 18.8181 36.4598 19.8075 34.691 19.8075H27.1317V29.9729H34.2878C36.9689 29.9729 39.1659 27.7482 39.1659 24.9731V0H32.0378Z" fill="url(#paint1_linear)"/>
<path d="M33.3504 12.8848C33.3504 12.2258 32.8943 11.7853 32.3586 11.7039C32.3056 11.7039 32.1703 11.6768 32.0908 11.6768H29.545V14.0944H32.0908C32.1717 14.0944 32.3321 14.0944 32.3586 14.0673C32.8957 13.9843 33.3504 13.5439 33.3504 12.8848Z" fill="url(#paint2_linear)"/>
<path d="M5.07209 0C2.39243 0 0.193961 2.22462 0.193961 4.99975V17.3355C1.56101 18.0217 2.98104 18.4621 4.40254 18.4621C6.09186 18.4621 7.00274 17.4184 7.00274 15.9901V10.1654H11.1848V15.9615C11.1848 18.2148 9.81778 20.0548 5.18098 20.0548C2.36594 20.0548 0.168945 19.4229 0.168945 19.4229V29.9442H7.325C10.0061 29.9442 12.2031 27.7196 12.2031 24.9444V0H5.07209Z" fill="url(#paint3_linear)"/>
<path d="M18.5556 0C15.8745 0 13.676 2.22463 13.676 4.99975V11.5379C14.9092 10.467 17.0532 9.7793 20.5113 9.94521C22.361 10.0282 24.3446 10.55 24.3446 10.55V12.666C23.3528 12.1442 22.1741 11.6766 20.6452 11.5665C18.0185 11.3735 16.4366 12.6932 16.4366 15.0008C16.4366 17.3355 18.0185 18.6552 20.6452 18.435C22.1726 18.3249 23.3528 17.8302 24.3446 17.3355V19.4515C24.3446 19.4515 22.3875 19.9734 20.5113 20.0563C17.0532 20.2207 14.9092 19.5345 13.676 18.4636V30.0015H20.8321C23.5132 30.0015 25.7102 27.7769 25.7102 25.0018V0C25.7117 0 18.5556 0 18.5556 0Z" fill="url(#paint4_linear)"/>
<defs>
<linearGradient id="paint0_linear" x1="27.155" y1="16.8956" x2="39.2" y2="16.8956" gradientUnits="userSpaceOnUse">
<stop stop-color="#007940"/>
<stop offset="0.2285" stop-color="#00873F"/>
<stop offset="0.7433" stop-color="#40A737"/>
<stop offset="1" stop-color="#5CB531"/>
</linearGradient>
<linearGradient id="paint1_linear" x1="27.1546" y1="14.9865" x2="39.1896" y2="14.9865" gradientUnits="userSpaceOnUse">
<stop stop-color="#007940"/>
<stop offset="0.2285" stop-color="#00873F"/>
<stop offset="0.7433" stop-color="#40A737"/>
<stop offset="1" stop-color="#5CB531"/>
</linearGradient>
<linearGradient id="paint2_linear" x1="27.1547" y1="12.885" x2="39.2002" y2="12.885" gradientUnits="userSpaceOnUse">
<stop stop-color="#007940"/>
<stop offset="0.2285" stop-color="#00873F"/>
<stop offset="0.7433" stop-color="#40A737"/>
<stop offset="1" stop-color="#5CB531"/>
</linearGradient>
<linearGradient id="paint3_linear" x1="0.188909" y1="14.9728" x2="12.4204" y2="14.9728" gradientUnits="userSpaceOnUse">
<stop stop-color="#1F286F"/>
<stop offset="0.4751" stop-color="#004E94"/>
<stop offset="0.8261" stop-color="#0066B1"/>
<stop offset="1" stop-color="#006FBC"/>
</linearGradient>
<linearGradient id="paint4_linear" x1="13.6076" y1="15.0003" x2="25.4873" y2="15.0003" gradientUnits="userSpaceOnUse">
<stop stop-color="#6C2C2F"/>
<stop offset="0.1735" stop-color="#882730"/>
<stop offset="0.5731" stop-color="#BE1833"/>
<stop offset="0.8585" stop-color="#DC0436"/>
<stop offset="1" stop-color="#E60039"/>
</linearGradient>
</defs>
</svg>
