<svg width="49" height="30" viewBox="0 0 49 30" fill="none" xmlns="http://www.w3.org/2000/svg">
<path d="M30.833 3.20801H17.708V26.7913H30.833V3.20801Z" fill="#FF5F00"/>
<path d="M18.5417 15C18.5417 10.2083 20.7917 5.95834 24.25 3.20834C21.7083 1.20834 18.5 0 15 0C6.70833 0 0 6.70833 0 15C0 23.2917 6.70833 30 15 30C18.5 30 21.7083 28.7917 24.25 26.7917C20.7917 24.0833 18.5417 19.7917 18.5417 15Z" fill="#EB001B"/>
<path d="M48.5417 15C48.5417 23.2917 41.8334 30 33.5417 30C30.0417 30 26.8334 28.7917 24.2917 26.7917C27.7917 24.0417 30.0001 19.7917 30.0001 15C30.0001 10.2083 27.7501 5.95834 24.2917 3.20834C26.8334 1.20834 30.0417 0 33.5417 0C41.8334 0 48.5417 6.75 48.5417 15Z" fill="#F79E1B"/>
</svg>
