<?xml version="1.0" encoding="UTF-8"?>
<!-- Generator: Adobe Illustrator 16.0.0, SVG Export Plug-In . SVG Version: 6.00 Build 0)  -->
<!DOCTYPE svg PUBLIC "-//W3C//DTD SVG 1.1//EN" "http://www.w3.org/Graphics/SVG/1.1/DTD/svg11.dtd">
<svg version="1.1" id="Layer_1" xmlns="http://www.w3.org/2000/svg" xmlns:xlink="http://www.w3.org/1999/xlink" x="0px" y="0px" width="223.548px" height="275px" viewBox="0 0 223.548 275" enable-background="new 0 0 223.548 275" xml:space="preserve">
<g>
	<path fill-rule="evenodd" clip-rule="evenodd" fill="#0C9E6F" d="M217.048,254.827c0,7.827-6.346,14.173-14.173,14.173H20.221   c-7.828,0-14.173-6.346-14.173-14.173V19.673c0-7.828,6.346-14.173,14.173-14.173h182.654c7.827,0,14.173,6.346,14.173,14.173   V254.827z"/>
	<path fill-rule="evenodd" clip-rule="evenodd" d="M217.048,254.827c0,7.827-6.346,14.173-14.173,14.173H20.221   c-7.828,0-14.173-6.346-14.173-14.173V215.5h211V254.827z"/>
	<path fill="#FFFFFF" d="M148.969,84.711c22.092,33.922,12.499,79.333-21.424,101.424s-79.333,12.5-101.424-21.424l21.061-14.151   c14.345,22.028,43.832,28.257,65.859,13.911c22.028-14.344,28.257-43.832,13.911-65.859L148.969,84.711z"/>
	<path d="M197.982,53.574C175.847,19.68,130.425,10.146,96.53,32.282C62.635,54.417,53.103,99.839,75.238,133.735l21.442-13.567   c-14.374-22.009-8.184-51.504,13.826-65.878c22.009-14.374,51.504-8.184,65.878,13.826L197.982,53.574z"/>
	<g>
		<path fill="#FFFFFF" d="M30.143,251.14l3.551-3.138c2.253,2.067,4.72,3.245,8.132,3.245c3.015,0,5.171-1.284,5.534-3.138    l0.014-0.072c0.35-1.781-0.572-2.744-5.52-3.814c-5.659-1.283-8.684-2.852-7.782-7.45l0.014-0.071    c0.839-4.278,5.387-7.237,10.901-7.237c4.047,0,7.043,1.104,9.462,3.137l-3.269,3.315c-2.171-1.676-4.496-2.567-7.035-2.567    c-2.856,0-4.781,1.32-5.103,2.96l-0.014,0.071c-0.377,1.925,0.725,2.78,5.856,3.922c5.62,1.283,8.264,3.172,7.453,7.309    l-0.014,0.071c-0.916,4.67-5.547,7.45-11.379,7.45C36.699,255.132,32.951,253.813,30.143,251.14z"/>
		<path fill="#FFFFFF" d="M58.245,229.819h5.276l2.996,18.504l10.467-18.575h4.126l3.181,18.575l10.255-18.504h5.117l-14.57,25.135    h-4.245l-3.306-17.933L67.2,254.954h-4.205L58.245,229.819z"/>
		<path fill="#FFFFFF" d="M104.737,229.819h4.88l-4.896,24.957h-4.88L104.737,229.819z"/>
		<path fill="#FFFFFF" d="M122.862,233.885h-8.808l0.798-4.065h22.534l-0.798,4.065h-8.807l-4.099,20.892h-4.919L122.862,233.885z"/>
		<path fill="#FFFFFF" d="M137.145,242.369l0.014-0.071c1.392-7.095,8.442-12.905,16.854-12.905c5.117,0,7.897,1.604,10.108,3.885    l-3.771,3.245c-1.858-1.854-3.994-3.102-7.168-3.102c-5.277,0-9.934,3.922-10.892,8.806l-0.015,0.071    c-0.958,4.884,2.114,8.842,7.431,8.842c3.411,0,5.831-1.213,8.604-3.209l2.574,2.853c-3.427,2.709-6.937,4.42-12.134,4.42    C140.657,255.203,135.738,249.535,137.145,242.369z"/>
		<path fill="#FFFFFF" d="M169.913,229.819h4.879l-2.034,10.375h13.25l2.036-10.375h4.879l-4.896,24.957h-4.879l2.063-10.518H171.96    l-2.063,10.518h-4.879L169.913,229.819z"/>
	</g>
</g>
</svg>