<svg width="94" height="30" viewBox="0 0 94 30" fill="none" xmlns="http://www.w3.org/2000/svg">
<path d="M40.6787 29.5482H33.2095L37.888 0.533203H45.3983L40.6787 29.5482Z" fill="#00579F"/>
<path d="M67.8884 1.23119C66.411 0.656635 64.0717 0 61.1579 0C53.7297 0 48.5177 3.93981 48.4767 9.60328C48.4356 13.7893 52.2113 16.0876 55.043 17.4829C57.9568 18.9193 58.9418 19.8222 58.9418 21.0944C58.9007 23.0233 56.6025 23.9261 54.4274 23.9261C51.4315 23.9261 49.831 23.4747 47.3686 22.3666L46.3836 21.9152L45.3987 28.4405C47.1634 29.2613 50.4055 29.959 53.7708 30C61.6504 30 66.7804 26.1012 66.8214 20.0684C66.8624 16.7442 64.8515 14.2408 60.5013 12.1477C57.8747 10.8345 56.2742 9.9316 56.2742 8.57729C56.3152 7.3461 57.6285 6.07387 60.5834 6.07387C63.0047 5.99179 64.8104 6.60739 66.1648 7.18194L66.9035 7.51026L67.8884 1.23119Z" fill="#00579F"/>
<path d="M77.8611 19.2883C78.4766 17.6057 80.857 11.1625 80.857 11.1625C80.8159 11.2446 81.4725 9.47985 81.8419 8.37178L82.3754 10.8752C82.3754 10.8752 83.8118 17.8109 84.0991 19.2883C82.95 19.2883 79.3795 19.2883 77.8611 19.2883ZM87.136 0.533203H81.3494C79.5437 0.533203 78.1894 1.06672 77.4096 2.95454L66.2468 29.5893H74.1264C74.1264 29.5893 75.4397 26.0188 75.686 25.2391C76.5478 25.2391 84.2222 25.2391 85.3303 25.2391C85.5355 26.2651 86.2332 29.5893 86.2332 29.5893H93.1689L87.136 0.533203Z" fill="#00579F"/>
<path d="M26.9303 0.533203L19.5842 20.3143L18.7634 16.2924C17.4091 11.696 13.141 6.64811 8.38037 4.14469L15.1109 29.5072H23.0315L34.851 0.533203H26.9303Z" fill="#00579F"/>
<path d="M12.7308 0.533203H0.665112L0.541992 1.10776C9.98111 3.5291 16.2191 9.31569 18.7636 16.2924L16.1371 2.95454C15.7267 1.10776 14.3724 0.574243 12.7308 0.533203Z" fill="#FAA61A"/>
</svg>
