<svg xmlns="http://www.w3.org/2000/svg" width="466.934" height="127.796" viewBox="0 0 466.934 127.796"><defs><style>.a{fill:#fdfdff;}.a,.b{fill-rule:evenodd;}.b,.c{fill:#ff896a;}</style></defs><g transform="translate(2.551 -10.156)"><g transform="translate(-2.551 10.156)"><path class="a" d="M0,52.569C0,63.255,2.256,70.142,6.531,78.81c2.731,5.581,10.093,14.723,14.961,17.929.356-4.749,7.718-11.992,11.636-14.6,1.781-1.187,3.8-2.375,5.581-3.325A19.513,19.513,0,0,0,43.7,82.254a14.153,14.153,0,0,0,6.887,1.9L45.951,99.827c-6.412,19.117-6.649,15.08.712,22.323,7.48,7.48,6.412,7.48,13.892,0,7.243-7.243,7.124-3.325.831-21.966-.831-2.612-1.544-5.343-2.375-7.718-.712-2.375-2.256-5.818-2.375-8.312,4.631,0,8.787-2.612,11.874-5.343C74.8,82.135,78.723,85.1,82.76,90.8c1.069,1.306,2.85,3.8,2.968,5.937,8.193-5.462,16.5-18.523,19.473-28.853,5.343-18.879-.712-39.3-12.7-51.176-4.868-4.868-8.074-7.718-14.6-10.924C41.439-12.5,0,14.811,0,52.569Z" transform="translate(0 0.036)"/><g transform="translate(30.991 26.364)"><path class="b" d="M651,390.325h3.562v-.119a14.6,14.6,0,0,0-.237-3.206Z" transform="translate(-604.692 -367.408)"/><path class="b" d="M500.161,247,489,258.161v3.562l13.3-13.3A11.157,11.157,0,0,0,500.161,247Z" transform="translate(-461.928 -244.032)"/><path class="b" d="M495.174,230,489,236.174v3.562l8.787-8.905A22.185,22.185,0,0,0,495.174,230Z" transform="translate(-461.928 -229.05)"/><path class="b" d="M492.325,222.356A16.694,16.694,0,0,0,489,222v3.562Z" transform="translate(-461.928 -222)"/><path class="b" d="M536.443,316.3l11.28-11.162A22.278,22.278,0,0,0,546.3,303L533,316.3Z" transform="translate(-500.703 -293.382)"/><path class="b" d="M505.979,272.781l-.831-.831a7.175,7.175,0,0,0-.95-.95L489,286.317V288.1h1.663Z" transform="translate(-461.928 -265.182)"/><path class="b" d="M595.443,349.787l6.293-6.174c-.238-.95-.594-1.781-.831-2.612L592,349.787Z" transform="translate(-552.698 -326.87)"/><path class="b" d="M284.035,256a22.976,22.976,0,1,0,23.035,22.916H284.035Z" transform="translate(-261 -251.963)"/></g></g><path class="c" d="M1045.976,339.671c3.814-3.391,5.764-8.985,6.018-16.615.254-6.866-1.7-12.461-6.018-16.784a23.488,23.488,0,0,0-31.958,0c-4.069,3.984-6.018,9.663-6.018,16.869.085,7.205,2.034,12.715,6.018,16.7a21.751,21.751,0,0,0,15.852,5.849C1036.227,345.6,1041.652,343.655,1045.976,339.671Zm-5-16.615c0,9.07-3.645,13.563-11.02,13.563-7.29,0-10.935-4.493-10.935-13.563.17-9.07,3.815-13.563,10.935-13.563C1037.16,309.494,1040.8,313.987,1040.974,323.057Zm33.992,19.92a21.168,21.168,0,0,1-.509,3.221,7.465,7.465,0,0,1-1.441,2.967c-.848,1.1-2.374,1.7-4.578,1.7a5.367,5.367,0,0,1-5-2.967h-11.529a12.668,12.668,0,0,0,5.341,8.985,18.145,18.145,0,0,0,10.6,3.136,21.862,21.862,0,0,0,11.02-2.628,12.242,12.242,0,0,0,5.256-6.273,21.041,21.041,0,0,0,1.526-7.883V326.108a18.462,18.462,0,0,0-1.526-7.544c-2.628-5.595-8.053-8.477-16.276-8.477-5.849,0-10.087,1.7-12.8,5.171-2.543,3.391-3.815,7.629-3.815,12.8a23.6,23.6,0,0,0,1.526,8.307c3.136,8.053,9.325,11.02,18.31,8.985A8.384,8.384,0,0,0,1074.966,342.977ZM1074.8,327.8c.085,3.221-.424,5.51-1.7,6.866a5.987,5.987,0,0,1-4.662,2.2,5.747,5.747,0,0,1-4.662-2.2c-1.187-1.526-1.7-3.73-1.61-6.781s.593-5.256,1.61-6.612a5.685,5.685,0,0,1,4.747-2.2,4.9,4.9,0,0,1,4.577,2.2A12.486,12.486,0,0,1,1074.8,327.8Zm35.433,15.936c4.408-2.289,6.7-6.358,6.781-12.376v-11.1a7.908,7.908,0,0,0-4.154-7.714A23.318,23.318,0,0,0,1101.583,310c-4.493.085-8.053,1.1-10.766,3.221a11.453,11.453,0,0,0-3.984,7.883h10.341c.339-1.611,1.949-2.458,4.662-2.458,3.221,0,4.832.763,4.747,2.119,0,.848-.678,1.356-2.034,1.611-1.95.254-4.069.593-6.443,1.017-7.968,1.271-12.037,5.086-12.122,11.274,0,4.832,1.95,8.053,5.849,9.918a18.883,18.883,0,0,0,9.324,1.356A19.857,19.857,0,0,0,1110.229,343.74Zm-3.56-14.411v1.611c.085,4.323-2.119,6.442-6.782,6.442-2.2,0-3.391-1.017-3.475-2.967,0-1.7,1.187-2.8,3.645-3.476,2.374-.424,3.9-.848,4.578-1.017A18.387,18.387,0,0,0,1106.669,329.329Zm50.352-13.987c5.764,0,8.646,2.967,8.646,8.816v17.462c0,2.458,1.356,3.73,3.9,3.73h2.119V324.837c0-9.918-4.832-14.834-14.665-14.75-5.425,0-9.239,1.441-11.7,4.408C1143.2,311.444,1139.3,310,1133.71,310c-9.918,0-14.834,4.917-14.749,14.834v20.514h6.019V324.159c-.085-5.849,2.8-8.816,8.561-8.816,5.849,0,8.731,2.882,8.731,8.477v21.531h6.188v-21.7C1148.375,318.14,1151.172,315.343,1157.021,315.343Zm27.3,9.494c-7.036,1.272-10.6,4.747-10.765,10.342-.17,7.205,4.069,10.766,12.63,10.766,5.849,0,10-1.017,12.461-3.221,2.459-2.119,3.645-5.34,3.645-9.664V318.395c-.085-5.51-4.662-8.307-13.9-8.307-8.9.085-13.309,3.306-13.309,9.664h6.1c0-3.136,2.373-4.662,7.036-4.747,5.425-.169,8.053,1.187,8.053,4.069,0,2.458-1.526,3.984-4.578,4.493Q1187.623,324.328,1184.316,324.837Zm11.952,1.7v6.527c0,5.255-2.967,7.883-9.07,7.883-4.747,0-7.12-1.865-7.12-5.51,0-3.73,2.373-5.934,7.29-6.612a49.216,49.216,0,0,0,6.1-1.017A7.188,7.188,0,0,0,1196.268,326.532Zm8.9,18.818h6.019V325.345c.085-5.764,3.052-8.731,9.07-8.731h2.712V310.6h-2.2c-10.426,0-15.6,5.256-15.6,15.682Zm20.174,0h6.019V332.89q0-2.67,2.543-2.8c1.95,0,3.56,1.1,4.917,3.306l7.205,11.952h7.884L1240.6,325.091l12.461-13.224h-8.222l-13.478,14.5v-21.87c0-2.458-1.272-3.73-3.815-3.73h-2.2Zm51.115-20.09h-19.242c.763-6.527,3.984-9.748,9.663-9.748S1275.78,318.734,1276.458,325.261Zm5.849,4.916c.678-13.393-4.408-20.09-15.343-20.09-10.427,0-15.682,6.019-15.767,17.971.169,11.952,5.34,17.886,15.427,17.886,8.307,0,13.393-3.73,15.174-11.274h-3.814a3.767,3.767,0,0,0-3.476,2.034c-1.271,2.289-3.729,3.475-7.375,3.73-6.1,0-9.409-3.391-9.917-10.257Zm2.2-29.414v38.569c0,4.408,3.052,6.442,9.07,6.018a14.229,14.229,0,0,0,2.459-.254V340.18h-1.526c-2.628,0-3.984-1.1-3.984-3.306v-22.04h3.052c2.459,0,3.645-1.1,3.645-3.306V310.6h-6.7v-6.1c0-2.543-1.271-3.815-3.814-3.73Zm38.654,24.5h-19.158c.763-6.527,3.985-9.748,9.664-9.748S1322.487,318.734,1323.165,325.261Zm5.934,4.916c.678-13.393-4.493-20.09-15.343-20.09-10.426,0-15.682,6.019-15.767,17.971.17,11.952,5.255,17.886,15.343,17.886,8.392,0,13.478-3.73,15.258-11.274h-3.9a3.643,3.643,0,0,0-3.391,2.034c-1.356,2.289-3.814,3.475-7.459,3.73-6.019,0-9.325-3.391-9.833-10.257Zm2.119,15.173h6.018V325.345c.085-5.764,3.136-8.731,9.155-8.731h2.628V310.6h-2.12c-10.426,0-15.682,5.256-15.682,15.682Z" transform="translate(-884.637 -256.085)"/></g></svg>